<svg width="113" height="122" viewBox="0 0 113 122" fill="none" xmlns="http://www.w3.org/2000/svg">
<path opacity="0.4" fill-rule="evenodd" clip-rule="evenodd" d="M0 122H105C109.418 122 113 118.418 113 114V0.103149C83.9061 64.1436 59.4721 91.4748 0 122Z" fill="#9BB1D6"/>
<g clip-path="url(#clip0_234_2)">
<path d="M87 94.625C81.1063 94.625 72.75 103.736 72.75 109.487C72.75 112.078 74.7398 113.625 78.0745 113.625C81.6993 113.625 84.0929 111.764 87 111.764C89.9324 111.764 92.3326 113.625 95.9256 113.625C99.2602 113.625 101.25 112.078 101.25 109.487C101.25 103.736 92.8937 94.625 87 94.625ZM76.0691 93.6891C75.2972 91.1174 72.9192 89.4519 70.758 89.9685C68.5967 90.4851 67.4708 92.9885 68.2427 95.5601C69.0146 98.1318 71.3926 99.7973 73.5538 99.2807C75.7151 98.7642 76.841 96.2608 76.0691 93.6891ZM82.3569 92.1468C84.6532 91.5427 85.8021 88.4403 84.9234 85.2177C84.0446 81.9952 81.4707 79.8733 79.1744 80.4774C76.8781 81.0815 75.7292 84.1839 76.6079 87.4065C77.4867 90.629 80.0613 92.7517 82.3569 92.1468ZM103.241 89.9692C101.08 89.4527 98.7028 91.1181 97.9302 93.6898C97.1583 96.2615 98.2842 98.7649 100.445 99.2815C102.607 99.798 104.984 98.1326 105.757 95.5609C106.528 92.9892 105.403 90.4858 103.241 89.9692ZM91.6431 92.1468C93.9395 92.751 96.5134 90.629 97.3921 87.4065C98.2709 84.1839 97.122 81.0823 94.8256 80.4774C92.5293 79.8725 89.9554 81.9952 89.0767 85.2177C88.1979 88.4403 89.3468 91.5427 91.6431 92.1468Z" fill="#FCFCFC"/>
</g>
<defs>
<clipPath id="clip0_234_2">
<rect width="38" height="38" fill="white" transform="translate(68 78)"/>
</clipPath>
</defs>
</svg>
